<svg xmlns="http://www.w3.org/2000/svg" width="256" height="256"><path fill-opacity=".016" d="M0 128.004v128.004l128.25-.254 128.25-.254.254-127.75L257.008 0H0v128.004m.485.496c0 70.4.119 99.053.265 63.672.146-35.38.146-92.98 0-128C.604 29.153.485 58.1.485 128.5" fill="#1976D2" fill-rule="evenodd"/><path fill-opacity=".175" d="M189.939 13.008c-2.508.424-7.458 2.215-11 3.978-5.769 2.873-15.045 11.802-89.189 85.846-89 88.882-85.973 85.488-80.259 89.982 1.37 1.078 5.42 3.236 9 4.795 3.58 1.56 6.509 3.08 6.509 3.379 0 .298-5.625 6.154-12.5 13.012-14.993 14.957-15.281 15.836-7.188 21.945 12.13 9.159 27.468 10.146 40.163 2.584 2.214-1.319 11.103-9.406 19.754-17.972l15.728-15.575 7.27-1.53c3.998-.841 10.87-3.193 15.271-5.228l8.002-3.698 28.449-.294 28.45-.293 8.8 8.76 8.801 8.759v5.688c0 10.098 5.725 19.122 15.197 23.955 5.993 3.057 20.261 3.311 22.46.399 2.27-3.006 1.382-17.697-1.39-23-4.618-8.832-13.701-14.44-23.447-14.478-5.417-.021-5.927-.252-11-4.984l-5.32-4.962 34.527-.038c29.59-.033 34.846-.261 36.75-1.595 2.853-1.998 3.023-6.945.289-8.408-1.224-.655-14.348-1.035-35.735-1.035H184.53l3.985-2.13c5.655-3.023 11.294-7.09 16.348-11.789 3.874-3.602 4.298-4.423 3.779-7.319-.495-2.76-.048-3.839 2.9-7.012 2.749-2.958 4.225-3.75 6.993-3.75 4.434 0 6.502-3.428 4.595-7.613-1.004-2.204-.845-3.379 1.018-7.5 1.415-3.131 2.834-4.887 3.948-4.887 3.689 0 4.956-1.428 6.926-7.808 3.386-10.961 4.978-22.739 4.978-36.823V73h6.345c6.794 0 9.655-1.66 9.655-5.602 0-1.103-3.651-5.619-8.426-10.422-6.186-6.223-8.599-9.387-9.078-11.905-1.941-10.185-13.18-23.861-23.366-28.432-9.365-4.203-16.091-5.173-25.191-3.631" fill="#1976D2" fill-rule="evenodd"/><path fill-opacity=".155" d="M184.214 14.835c-2.907 1.035-7.632 3.506-10.5 5.491-2.868 1.985-41.552 39.968-85.964 84.406C19.806 172.715 7 185.966 7 188.287c0 2.174.942 3.354 4.454 5.581 2.449 1.554 6.612 3.634 9.25 4.622 2.638.989 4.885 1.86 4.995 1.936.109.076-5.628 6.139-12.75 13.474C5.827 221.234 0 228.059 0 229.067c0 2.574 5.511 7.491 12 10.707 4.882 2.42 6.624 2.726 15.5 2.726 14.237 0 16.806-1.5 37.5-21.89l16.5-16.258 7-1.314c3.85-.723 11.05-3.157 16-5.41l9-4.096 26.949-.298 26.949-.298 9.301 9.262L186 211.46l.022 5.52c.037 9.277 4.687 17.153 13.478 22.83 3.388 2.187 5.377 2.636 13 2.934 5.06.197 9.657-.093 10.5-.663 2.511-1.697 1.866-17.662-.949-23.476-4.247-8.773-14.14-14.605-24.775-14.605-3.809 0-4.99-.588-9.319-4.637-2.726-2.55-4.957-5.025-4.957-5.5 0-.475 15.885-.863 35.3-.863 37.283 0 37.7-.051 37.7-4.629 0-5.321-.325-5.368-37.821-5.41-30.757-.035-34.312-.199-31.43-1.452 8.086-3.514 22.251-15.334 22.251-18.566 0-1.979-3.09-4.943-5.153-4.943-.823 0-4.833 2.497-8.912 5.548-9.417 7.046-17.688 11.668-25.935 14.493-6.637 2.273-24.358 4.864-33.69 4.925l-5.19.034 5.483-5.186c9.976-9.434 18.761-23.073 22.747-35.314 3.949-12.127 3.949-35.88 0-48-2.492-7.646-7.709-17.51-12.403-23.447l-4.232-5.355 18.473-18.327c20.983-20.816 25.305-23.648 36.257-23.757 8.205-.081 13.279 1.608 20.259 6.747 4.76 3.504 6.45 5.557 8.841 10.736L228.5 47.5l-.009 29.5c-.009 27.967-.132 29.942-2.38 38-3.419 12.259-3.449 12.519-1.626 14.342 2.158 2.159 5.8 2.115 7.757-.092 4.15-4.681 7.449-26.522 7.703-51L240 73h5.777C252.336 73 256 71.09 256 67.671c0-1.448-2.914-5.114-8.418-10.59-6.783-6.747-8.638-9.246-9.548-12.862-2.766-10.981-12.182-22.26-22.892-27.42-5.774-2.781-7.884-3.242-16.142-3.523-7.381-.251-10.679.097-14.786 1.559m17.009 39.722c-2.449 1.715-3.012 6.254-1.023 8.243.66.66 2.37 1.2 3.8 1.2 3.346 0 5-1.702 5-5.143 0-2.376-2.972-5.857-5-5.857-.305 0-1.555.701-2.777 1.557M79.5 128.221l-40 40.004 5.5-.729c7.058-.936 20.211-4.73 27.356-7.89 18.207-8.052 35.813-25.099 42.453-41.106 2.952-7.117 5.361-19.26 5-25.204l-.309-5.079-40 40.004m137 12.974c-3.826 2.169-4.616 5.546-1.929 8.234 2.108 2.107 5.743 1.987 7.774-.258 2.26-2.497 2.078-4.425-.659-6.997-2.661-2.499-2.544-2.477-5.186-.979M197 218.05c0 6.793 5.565 12.921 12.438 13.696l4.562.514v-3.262c0-6.628-7.614-13.998-14.46-13.998-2.165 0-2.54.451-2.54 3.05" fill="#1976D2" fill-rule="evenodd"/><path fill-opacity=".989" d="M186 14.555c-2.475.778-6.64 2.659-9.255 4.18C171.005 22.073 7 185.674 7 188.062c0 2.6 4.247 5.819 12.291 9.316l7.568 3.29L13.43 214.07C6.043 221.441 0 228.006 0 228.659c0 2.523 5.4 7.413 11.508 10.42 11.215 5.52 24.755 4.843 34.863-1.745 2.129-1.387 10.74-9.395 19.136-17.794l15.265-15.271 6.864-1.273c3.775-.701 10.914-3.117 15.864-5.37l9-4.096 27.502-.295 27.502-.294 9.099 8.885 9.1 8.886.524 6.53c.931 11.593 8.731 21.986 18.548 24.712 5.125 1.424 16.545 1.326 18.025-.154 1.973-1.973 1.504-17.537-.671-22.3-3.981-8.715-12.378-14.132-23.522-15.172-6.17-.576-6.673-.832-11.742-5.965L181.568 193h35.561c33.181 0 35.672-.122 37.216-1.829 2.163-2.39 2.088-3.738-.345-6.171-1.921-1.921-3.346-2.001-36.25-2.018l-34.25-.018 5.238-2.888c12.352-6.811 19.58-13.48 19.088-17.614-.491-4.133-3.891-4.943-8.011-1.909-23.311 17.163-33.825 21.214-57.315 22.081l-14 .517 3.016-2.026c5.692-3.822 17.151-18.392 21.728-27.625 6.054-12.214 7.204-17.803 7.204-35 0-14.181-.268-16.796-2.364-23-3.22-9.534-7.532-17.924-12.604-24.521l-4.245-5.521 16.633-16.538c9.147-9.095 18.432-17.919 20.632-19.608 14.872-11.419 37.674-6.539 46.632 9.979L228.5 45.5V77c0 27.987-.212 32.225-1.898 38-3.034 10.389-3.177 13.622-.661 14.968 2.931 1.569 5.97.386 7.204-2.804 3.73-9.639 5.102-18.316 5.717-36.164l.638-18.5 7-.283c7.091-.287 9.5-1.566 9.5-5.043 0-.794-4.05-5.573-9-10.621-5.041-5.14-9.004-10.03-9.01-11.115-.031-6.264-10.126-20.665-17.978-25.647-9.744-6.182-24.017-8.38-34.012-5.236m14.438 41.513c-1.709 1.889-1.741 2.301-.37 4.743 1.855 3.307 4.475 3.913 7.006 1.622 2.421-2.191 2.456-4.644.097-6.778-2.442-2.21-4.471-2.086-6.733.413m-68.09 18.592c-2.023 1.367-2.121 2.04-1.627 11.147 1.797 33.097-14.433 60.854-46.249 79.097-15.28 8.761-29.006 12.926-45.472 13.799-10.15.537-10.644.672-14.823 4.053-2.378 1.924-3.953 3.824-3.5 4.222 1.74 1.53 14.177 5.874 21.823 7.621 12.043 2.752 30.119 2.37 42.62-.901 31.23-8.171 54.164-28.286 63.506-55.698 1.481-4.347 1.874-8.436 1.874-19.5 0-16.006-.851-19.468-8.3-33.76-5.629-10.802-6.884-12.086-9.852-10.08m-53.237 52.937c-22.214 22.252-40.148 40.7-39.854 40.994.744.743 11.89-1.317 19.996-3.696 16.482-4.837 29.176-12.533 41.334-25.062 9.303-9.586 14.805-18.736 17.514-29.128 2.146-8.23 3.653-23.74 2.297-23.636-.494.038-19.073 18.275-41.287 40.528M215.2 142.2c-.66.66-1.2 2.444-1.2 3.965 0 5.005 6.638 6.249 9.072 1.7 2.299-4.296-4.411-9.126-7.872-5.665M24.751 216.136c-6.462 6.632-11.52 12.429-11.239 12.884.282.455 2.818 1.593 5.637 2.529 6.332 2.104 13.858 1.508 19.899-1.573C42.994 227.963 64 208.611 64 206.989c0-.386-4.612-1.003-10.25-1.37-5.638-.368-11.825-.864-13.75-1.104-3.342-.416-4.032.111-15.249 11.621m171.709-1.071c-1.157 1.872.625 8.325 3.256 11.791 2.831 3.73 7.646 6.144 12.252 6.144 2.546 0 3.032-.39 3.032-2.435 0-6.264-5.841-13.87-11.956-15.569-4.531-1.259-5.771-1.246-6.584.069" fill="#1976D2" fill-rule="evenodd"/></svg>